<svg viewBox="0 0 512 512.00064" xmlns="http://www.w3.org/2000/svg"><path d="m136.347656 245.707031c-14.105468 21.222657-102.832031 117.410157-124.054687 103.304688-21.222657-14.105469 33.101562-133.160157 47.203125-154.382813 14.105468-21.21875 42.742187-26.988281 63.964844-12.886718 21.222656 14.105468 26.992187 42.742187 12.886718 63.964843zm0 0" fill="#59c1bc"/><path d="m266.292969 375.652344c-21.222657 14.105468-117.410157 102.832031-103.304688 124.054687 14.105469 21.222657 133.160157-33.097656 154.382813-47.203125 21.21875-14.105468 26.988281-42.742187 12.886718-63.964844-14.105468-21.222656-42.742187-26.992187-63.964843-12.886718zm0 0" fill="#66d3d0"/><path d="m504.5 59.621094c-.050781-28.792969-23.328125-52.070313-52.121094-52.121094-60.859375-.105469-165.113281 12.1875-235.03125 88.121094-62.644531 68.03125-116.367187 137.6875-149.199218 182.34375-20.078126 27.3125-17.175782 65.191406 6.792968 89.160156l69.933594 69.933594c23.96875 23.96875 61.847656 26.871094 89.160156 6.792968 44.65625-32.832031 114.3125-86.554687 182.34375-149.199218 75.933594-69.917969 88.226563-174.171875 88.121094-235.03125zm0 0" fill="#eaeaea"/><path d="m68.148438 277.964844c-20.078126 27.3125-17.175782 65.191406 6.792968 89.160156l42.613282 42.613281c18.175781-122.699219 113.351562-237.632812 199.304687-253.15625 60.332031-10.894531 137.011719-39.421875 185.925781-57.191406 1.289063-14.511719 1.734375-27.960937 1.714844-39.769531-.050781-28.792969-23.328125-52.070313-52.121094-52.121094-60.859375-.105469-165.113281 12.1875-235.03125 88.121094-62.644531 68.03125-116.367187 137.6875-149.199218 182.34375zm0 0" fill="#d8d7da"/><path d="m74.941406 367.125 69.933594 69.933594c23.96875 23.96875 61.847656 26.871094 89.160156 6.792968l-165.886718-165.886718c-20.078126 27.3125-17.175782 65.191406 6.792968 89.160156zm0 0" fill="#ff929f"/><path d="m403.683594 175.863281c0 37.304688-30.242188 67.546875-67.546875 67.546875-37.304688 0-67.546875-30.242187-67.546875-67.546875 0-37.304687 30.242187-67.546875 67.546875-67.546875 37.304687 0 67.546875 30.242188 67.546875 67.546875zm0 0" fill="#92d8ff"/><path d="m452.378906 7.5c-27.570312-.046875-64.046875 2.449219-102.199218 12.253906 16.777343 25.863282 38.355468 52.566406 63.925781 78.140625 25.574219 25.570313 52.277343 47.148438 78.140625 63.929688 9.804687-38.15625 12.300781-74.632813 12.253906-102.203125-.050781-28.792969-23.328125-52.070313-52.121094-52.121094zm0 0" fill="#ff929f"/><path d="m74.941406 367.125 42.613282 42.613281c3.296874-22.246093 9.117187-44.21875 16.960937-65.40625l-66.367187-66.367187c-20.078126 27.3125-17.175782 65.191406 6.792968 89.160156zm0 0" fill="#ff737d"/><path d="m288.375 128.097656c-12.945312 12.949219-19.539062 29.847656-19.777344 46.816406 16.03125-9.140624 32.3125-15.449218 48.261719-18.332031 23.382813-4.222656 49.242187-11.101562 74.96875-18.96875-2.304687-3.34375-4.949219-6.535156-7.925781-9.515625-26.378906-26.378906-69.148438-26.378906-95.527344 0zm0 0" fill="#72cef7"/><path d="m439.789062 121.933594c23.285157-8.027344 45.019532-16.011719 62.996094-22.542969 1.289063-14.511719 1.734375-27.960937 1.714844-39.769531-.050781-28.792969-23.328125-52.070313-52.121094-52.121094-27.570312-.046875-64.046875 2.449219-102.199218 12.253906 16.777343 25.863282 38.355468 52.566406 63.925781 78.140625 8.464843 8.460938 17.042969 16.480469 25.683593 24.039063zm0 0" fill="#ff737d"/><path d="m255.335938 333.761719c-21.289063 21.289062-146.511719 111.996093-167.800782 90.703125-21.289062-21.289063 69.414063-146.511719 90.703125-167.800782 21.289063-21.289062 55.808594-21.289062 77.097657 0 21.289062 21.289063 21.289062 55.808594 0 77.097657zm0 0" fill="#7de2e2"/><path d="m202.875 309.128906c18.472656-18.476562 46.921875-20.898437 68.03125-7.308594 1.945312-16.058593-3.242188-32.828124-15.570312-45.15625-21.289063-21.289062-55.804688-21.289062-77.097657 0-21.289062 21.289063-111.992187 146.511719-90.703125 167.800782 6.058594 6.058594 20.523438 3.050781 38.617188-4.84375 23.285156-43.667969 63.460937-97.234375 76.722656-110.492188zm0 0" fill="#66d3d0"/><path d="m452.390625 0c-28.390625-.046875-71.683594 2.664062-116.257813 15.855469-50.652343 14.988281-92.476562 40.117187-124.304687 74.683593-28.03125 30.441407-54.269531 61.1875-77.753906 90.007813-2.015625-1.835937-51.367188-34.074219-80.824219 9.933594-7.984375 11.921875-25.351562 48.316406-37.636719 81.398437-23.582031 63.515625-15.5585935 78.003906-7.472656 83.378906 2.707031 1.800782 18.8125 6.785157 43-12.949218 3.699219 11.273437 9.992187 21.617187 18.496094 30.121094l14.25 14.25c-8.828125 21.570312-9.128907 35.253906-1.65625 43.089843 9.351562 9.8125 30.382812 3.554688 43.101562-1.640625l14.238281 14.234375c8.5 8.503907 18.847657 14.796875 30.117188 18.496094-15.015625 20.4375-19 33.890625-12.945312 43.003906 2.710937 4.078125 7.738281 8.136719 20.207031 8.136719 12.25 0 31.691406-3.925781 63.171875-15.613281 33.082031-12.285157 69.449218-29.691407 81.402344-37.636719 19.601562-13.027344 28.386718-36.964844 21.851562-59.5625-1.148438-3.980469-5.3125-6.273438-9.289062-5.121094-3.980469 1.148438-6.273438 5.308594-5.121094 9.289063 4.703125 16.273437-1.625 33.515625-15.746094 42.902343-9.945312 6.609376-44.550781 23.527344-78.320312 36.066407-57.152344 21.21875-65.605469 13.320312-65.660157 13.234375-.039062-.058594-2.691406-6.542969 16.6875-31.273438.570313.054688 25.476563 2.929688 52.550781-14.390625 48.230469-30.847656 115.316407-87.414062 182.984376-149.722656 34.566406-31.828125 59.695312-73.652344 74.683593-124.300781 13.191407-44.578125 15.902344-87.828125 15.855469-116.261719-.054688-32.8125-26.796875-59.5546875-59.609375-59.609375zm-404.671875 326.070312c-24.71875 19.367188-31.21875 16.730469-31.273438 16.695313-.089843-.0625-7.988281-8.511719 13.234376-65.664063 12.539062-33.769531 28.886718-68.777343 36.0625-78.320312 23.742187-31.558594 57.234374-8.097656 58.867187-6.542969-24.671875 30.6875-45.480469 59.082031-62.503906 81.285157-17.832031 23.261718-14.445313 51.980468-14.386719 52.546874zm32.527344 35.75c-10.328125-10.328124-16.628906-24.03125-17.738282-38.589843-.886718-11.597657 1.578126-23.152344 6.980469-33.316407l43.226563 43.226563c-9.558594 12.125-22.183594 38.96875-22.183594 38.96875zm108.527344 87.671876c-14.5625-1.109376-28.265626-7.410157-38.59375-17.738282l-10.269532-10.265625c9.988282-4.957031 30.03125-15.683593 38.953125-22.199219l43.222657 43.222657c-10.164063 5.402343-21.714844 7.867187-33.3125 6.980469zm292.988281-277.878907c-14.210938 48.015625-37.917969 87.554688-70.460938 117.523438-64.679687 59.554687-130.796875 111.03125-176.527343 144.847656l-43.003907-43.007813c30.035157-19.800781 58.769531-41.808593 68.871094-51.910156 24.179687-24.179687 24.179687-63.527344 0-87.707031s-63.527344-24.179687-87.707031 0c-3.914063 3.917969-9.671875 10.699219-16.652344 19.609375-2.550781 3.265625-1.976562 7.976562 1.285156 10.53125 3.261719 2.554688 7.972656 1.980469 10.527344-1.28125 6.519531-8.324219 12.003906-14.804688 15.449219-18.25 18.332031-18.332031 48.15625-18.332031 66.488281 0s18.332031 48.15625 0 66.488281c-10.019531 10.023438-46.273438 37.792969-82.542969 60.246094-64.171875 39.730469-74.550781 30.554687-74.648437 30.457031-2.089844-2.085937-2.378906-13.355468 11.46875-41.070312 13.480468-26.988282 33.617187-56.570313 44.421875-71.800782 2.394531-3.378906 1.597656-8.0625-1.78125-10.457031-3.378907-2.398437-8.0625-1.601562-10.457031 1.777344-4.109376 5.796875-9.546876 13.632813-15.46875 22.621094l-43.007813-43.003907c33.816406-45.730468 85.289063-111.84375 144.847656-176.527343 29.96875-32.542969 69.507813-56.25 117.523438-70.460938 2.171875-.640625 4.335937-1.25 6.5-1.84375 17.148437 25.699219 37.953125 50.839844 61.914062 74.800781 16.148438 16.148438 33.328125 30.777344 50.367188 44.363282 4.691406 3.742187 9.042969.550781 10.519531-1.371094 2.527344-3.28125 1.914062-7.992188-1.371094-10.519531-16.761718-12.894531-33.214844-27.386719-48.90625-43.078125-21.871094-21.871094-41.007812-44.722656-57.015625-68.050782 34.796875-7.800781 67.257813-9.601562 89.972657-9.539062 24.566406.042969 44.585937 20.066406 44.628906 44.632812.050781 27.4375-2.554688 69.136719-15.234375 111.980469zm0 0"/><path d="m283.070312 122.796875c-14.171874 14.171875-21.980468 33.019531-21.980468 53.066406 0 20.042969 7.808594 38.890625 21.980468 53.066407 14.632813 14.628906 33.851563 21.945312 53.070313 21.945312s38.433594-7.316406 53.066406-21.945312c29.261719-29.261719 29.261719-76.875 0-106.132813-29.261719-29.261719-76.875-29.261719-106.136719 0zm95.527344 95.523437c-23.414062 23.414063-61.507812 23.414063-84.917968 0-11.34375-11.339843-17.589844-26.417968-17.589844-42.460937 0-16.039063 6.246094-31.117187 17.589844-42.457031 11.707031-11.707032 27.082031-17.558594 42.460937-17.558594 15.375 0 30.75 5.851562 42.457031 17.558594 23.410156 23.414062 23.410156 61.507812 0 84.917968zm0 0"/></svg>