<?xml version="1.0" encoding="iso-8859-1"?>
<!-- Generator: Adobe Illustrator 19.0.0, SVG Export Plug-In . SVG Version: 6.00 Build 0)  -->
<svg version="1.1" id="Capa_1" xmlns="http://www.w3.org/2000/svg" xmlns:xlink="http://www.w3.org/1999/xlink" x="0px" y="0px"
	 viewBox="0 0 512 512" style="enable-background:new 0 0 512 512;" xml:space="preserve">
<path style="fill:#303C42;" d="M472.707,120.349c0.173-0.104,0.374-0.098,0.543-0.214c4.865-3.323,6.104-9.958,2.781-14.823
	c-3.417-4.99-8.385-5.781-13.802-5.021c2.542-5.813,2.188-10.74-1.052-14.635c-3.26-3.917-8.01-5.177-14.177-3.74
	c1.25-3.729,2.323-9.781-2.417-14.448c-4.708-4.729-10.74-3.635-14.448-2.417c1.427-6.167,0.167-10.927-3.74-14.188
	c-2.719-2.271-7.448-4.219-14.625-1.052c0.76-5.438-0.021-10.385-5.021-13.802c-4.865-3.323-11.51-2.083-14.823,2.781
	c-0.115,0.167-0.108,0.367-0.212,0.539C352.315,14.56,305.875,0,256,0s-96.315,14.561-135.715,39.332
	c-0.104-0.172-0.098-0.374-0.212-0.54c-3.323-4.854-9.927-6.083-14.823-2.781c-4.979,3.406-5.771,8.333-5.01,13.813
	c-7.208-3.156-11.927-1.188-14.656,1.052c-3.896,3.25-5.146,8.021-3.719,14.177c-3.75-1.26-9.792-2.333-14.396,2.365
	c-4.792,4.719-3.708,10.792-2.469,14.5c-6.188-1.479-10.927-0.188-14.177,3.74c-3.229,3.896-3.594,8.813-1.052,14.635
	c-5.427-0.729-10.365,0.021-13.781,4.979c-3.344,4.854-2.125,11.5,2.729,14.833c0.181,0.125,0.397,0.12,0.582,0.232
	C14.549,159.725,0,206.146,0,256c0,141.156,114.844,256,256,256s256-114.844,256-256C512,206.151,497.453,159.736,472.707,120.349z"
	/>
<path style="fill:#929799;" d="M170.667,474.368v-26.348c0-47.052,38.281-85.333,85.333-85.333s85.333,38.281,85.333,85.333v26.348
	c-26.487,10.389-55.207,16.298-85.333,16.298S197.154,484.758,170.667,474.368z"/>
<path style="opacity:0.1;enable-background:new    ;" d="M310.521,382.93c12.389,14.816,20.146,33.625,20.146,54.404
	c0,16.311-10.822,30.891-26.598,35.033c-18.772,4.93-38.435,7.613-58.736,7.613c-26.163,0-51.167-4.676-74.667-12.652v7.042
	c26.487,10.389,55.207,16.298,85.333,16.298s58.846-5.909,85.333-16.298v-26.348C341.333,421.799,329.191,398.596,310.521,382.93z"
	/>
<path id="SVGCleanerId_0" style="fill:#5E6367;" d="M362.667,464.762v-16.741c0-58.813-47.854-106.667-106.667-106.667
	s-106.667,47.854-106.667,106.667v16.741c-75.866-38.924-128-117.792-128-208.762C21.333,126.604,126.604,21.333,256,21.333
	S490.667,126.604,490.667,256C490.667,346.97,438.533,425.837,362.667,464.762z"/>
<g>
	<path id="SVGCleanerId_0_1_" style="fill:#5E6367;" d="M362.667,464.762v-16.741c0-58.813-47.854-106.667-106.667-106.667
		s-106.667,47.854-106.667,106.667v16.741c-75.866-38.924-128-117.792-128-208.762C21.333,126.604,126.604,21.333,256,21.333
		S490.667,126.604,490.667,256C490.667,346.97,438.533,425.837,362.667,464.762z"/>
</g>
<path style="opacity:0.2;fill:#FFFFFF;enable-background:new    ;" d="M64,281.905C64,152.509,169.271,47.238,298.667,47.238
	c35.526,0,69.102,8.165,99.311,22.357C358.504,39.456,309.385,21.333,256,21.333C126.604,21.333,21.333,126.604,21.333,256
	c0,90.97,52.134,169.837,128,208.762v-2.323C97.306,419.408,64,354.549,64,281.905z"/>
<path style="fill:#303C42;" d="M330.667,149.333H181.333c-5.896,0-10.667,4.771-10.667,10.667v85.333
	c0,5.896,4.771,10.667,10.667,10.667h149.333c5.896,0,10.667-4.771,10.667-10.667V160
	C341.333,154.104,336.563,149.333,330.667,149.333z"/>
<rect x="192" y="170.667" style="fill:#00AAE7;" width="128" height="64"/>
<rect x="298.667" y="170.667" style="opacity:0.1;enable-background:new    ;" width="21.333" height="64"/>
<rect x="192" y="170.667" style="opacity:0.2;fill:#FFFFFF;enable-background:new    ;" width="21.333" height="64"/>
<circle style="fill:#303C42;" cx="256" cy="426.667" r="42.667"/>
<circle style="fill:#00AAE7;" cx="256" cy="426.667" r="21.333"/>
<linearGradient id="SVGID_1_" gradientUnits="userSpaceOnUse" x1="-45.815" y1="639.8531" x2="-23.7562" y2="629.5673" gradientTransform="matrix(21.3333 0 0 -21.3333 996.3334 13791.667)">
	<stop  offset="0" style="stop-color:#FFFFFF;stop-opacity:0.2"/>
	<stop  offset="1" style="stop-color:#FFFFFF;stop-opacity:0"/>
</linearGradient>
<path style="fill:url(#SVGID_1_);" d="M472.707,120.349c0.173-0.104,0.374-0.098,0.543-0.214c4.865-3.323,6.104-9.958,2.781-14.823
	c-3.417-4.99-8.385-5.781-13.802-5.021c2.542-5.813,2.188-10.74-1.052-14.635c-3.26-3.917-8.01-5.177-14.177-3.74
	c1.25-3.729,2.323-9.781-2.417-14.448c-4.708-4.729-10.74-3.635-14.448-2.417c1.427-6.167,0.167-10.927-3.74-14.188
	c-2.719-2.271-7.448-4.219-14.625-1.052c0.76-5.438-0.021-10.385-5.021-13.802c-4.865-3.323-11.51-2.083-14.823,2.781
	c-0.115,0.167-0.108,0.367-0.212,0.539C352.315,14.56,305.875,0,256,0s-96.315,14.561-135.715,39.332
	c-0.104-0.172-0.098-0.374-0.212-0.54c-3.323-4.854-9.927-6.083-14.823-2.781c-4.979,3.406-5.771,8.333-5.01,13.813
	c-7.208-3.156-11.927-1.188-14.656,1.052c-3.896,3.25-5.146,8.021-3.719,14.177c-3.75-1.26-9.792-2.333-14.396,2.365
	c-4.792,4.719-3.708,10.792-2.469,14.5c-6.188-1.479-10.927-0.188-14.177,3.74c-3.229,3.896-3.594,8.813-1.052,14.635
	c-5.427-0.729-10.365,0.021-13.781,4.979c-3.344,4.854-2.125,11.5,2.729,14.833c0.181,0.125,0.397,0.12,0.582,0.232
	C14.549,159.725,0,206.146,0,256c0,141.156,114.844,256,256,256s256-114.844,256-256C512,206.151,497.453,159.736,472.707,120.349z"
	/>
<g>
</g>
<g>
</g>
<g>
</g>
<g>
</g>
<g>
</g>
<g>
</g>
<g>
</g>
<g>
</g>
<g>
</g>
<g>
</g>
<g>
</g>
<g>
</g>
<g>
</g>
<g>
</g>
<g>
</g>
</svg>
